<svg width="210" height="57" viewBox="0 0 210 57" fill="none" xmlns="http://www.w3.org/2000/svg">
<path d="M8.10254 0.5L19.5117 32.5273L20.4834 32.3604V0.5H28.3516V52.8916C26.9371 53.1193 25.5059 53.282 24.0391 53.4375C22.563 53.5939 21.049 53.7466 19.4971 53.9551L9.51953 24.4795L8.5459 24.6396V55.3057C5.72574 55.6298 3.16727 55.9993 0.5 56.416V0.5H8.10254ZM187.962 0.5L193.631 15.1416L194.081 16.3047L194.56 15.1523L200.64 0.5H209.252L198.306 26.9424L198.23 27.124L198.3 27.3096L209.233 56.3809C206.3 55.9429 203.374 55.4262 200.373 54.9473L194.149 38.7119L193.709 37.5625L193.223 38.6934L186.873 53.4775C184.034 53.0266 181.183 52.8237 178.388 52.4863L189.53 26.9775L189.612 26.7891L189.538 26.5967L179.454 0.5H187.962ZM61.5186 0.5V8.40625H45.8516V21.3984H46.3516C48.0725 21.3984 50.2508 21.3541 52.3848 21.3096C54.3018 21.2696 56.1828 21.2305 57.6758 21.2227V29.126C53.889 29.1263 49.5103 29.1335 46.3242 29.3066L45.8516 29.333V43.583L46.3857 43.5459C51.4248 43.1992 56.4448 42.8018 61.5186 42.6152V50.1836L37.9834 52.0645V0.5H61.5186ZM170.658 0.5V51.8672C168.082 51.5773 165.468 51.4548 162.968 51.3037V0.5H170.658ZM139.381 0.5V42.0498L139.869 42.0615C144.786 42.1769 149.677 42.5658 154.458 42.8066V50.6455C146.871 50.1365 139.273 49.6886 131.515 49.5049V0.5H139.381ZM94.5088 0.5V8.40625H85.2861V49.375C82.6676 49.3753 80.002 49.3813 77.418 49.4736V8.40625H68.2529V0.5H94.5088ZM125.016 0.5V8.40625H108.936V20.7471H121.055V28.6523H108.936V48.8994H101.185V0.5H125.016Z" stroke="#E50914"/>
</svg>
